<?xml version="1.0" encoding="UTF-8" standalone="no"?>
<!DOCTYPE svg PUBLIC "-//W3C//DTD SVG 20010904//EN" "http://www.w3.org/TR/2001/REC-SVG-20010904/DTD/svg10.dtd">
<svg version="1.0" xmlns="http://www.w3.org/2000/svg" width="300.000000pt" height="225.000000pt" viewBox="0 0 300.000000 225.000000" preserveAspectRatio="xMidYMid meet">
<metadata>
Created by potrace 1.10, written by Peter Selinger 2001-2011
</metadata>
<g transform="translate(0.000000,225.000000) scale(0.100000,-0.100000)" fill="#000000" stroke="none">
<path d="M1085 2160 c-150 -31 -264 -119 -330 -255 -87 -177 -57 -380 76 -520 92 -97 204 -145 338 -145 139 0 243 44 335 140 182 191 175 478 -15 660 -105 100 -266 148 -404 120z"/>
<path d="M2024 1839 c-119 -15 -223 -93 -278 -209 -27 -57 -31 -75 -30 -150 0 -74 4 -93 32 -151 38 -78 100 -140 180 -177 49 -23 70 -27 147 -27 76 0 99 4 146 26 236 111 290 413 105 588 -29 27 -71 58 -94 70 -51 26 -140 39 -208 30z"/>
<path d="M785 1201 c-294 -88 -476 -223 -536 -398 -16 -48 -19 -86 -20 -266 l-1 -209 28 -28 c52 -50 349 -132 599 -165 159 -21 471 -21 630 0 243 32 546 115 598 163 l27 26 0 212 c0 193 -2 219 -21 271 -66 176 -253 314 -532 392 l-74 21 -65 -30 c-165 -77 -350 -75 -510 6 -55 28 -46 28 -123 5z"/>
<path d="M2279 1065 c-25 -13 -74 -29 -110 -36 -35 -7 -65 -14 -67 -14 -1 -1 16 -33 38 -71 67 -116 82 -198 78 -431 -3 -184 -5 -201 -26 -242 l-23 -44 91 6 c191 14 515 97 545 139 21 31 22 302 0 375 -43 144 -189 255 -430 326 -48 14 -53 14 -96 -8z"/>
</g>
</svg>