<?xml version="1.0" standalone="no"?>
<!DOCTYPE svg PUBLIC "-//W3C//DTD SVG 20010904//EN"
 "http://www.w3.org/TR/2001/REC-SVG-20010904/DTD/svg10.dtd">
<svg version="1.0" xmlns="http://www.w3.org/2000/svg"
 width="900.000000pt" height="855.000000pt" viewBox="0 0 900.000000 855.000000"
 preserveAspectRatio="xMidYMid meet">
<metadata>
Created by potrace 1.10, written by Peter Selinger 2001-2011
</metadata>
<g transform="translate(0.000000,855.000000) scale(0.100000,-0.100000)"
fill="#000000" stroke="none">
<path d="M4680 7344 c-418 -24 -863 -103 -1200 -215 -47 -15 -121 -35 -165
-44 -44 -9 -102 -27 -130 -40 -27 -12 -83 -37 -124 -55 -102 -44 -274 -147
-401 -239 -678 -491 -1240 -1442 -1424 -2406 -37 -193 -49 -329 -43 -496 6
-199 17 -257 83 -440 57 -158 198 -327 361 -435 263 -173 583 -251 992 -242
108 3 203 8 212 12 9 4 25 0 38 -11 17 -15 29 -54 62 -213 22 -107 44 -217 49
-245 4 -27 13 -70 18 -95 6 -25 18 -83 27 -130 41 -211 57 -268 102 -360 41
-83 60 -109 152 -201 121 -121 247 -209 416 -289 158 -75 244 -107 410 -155
218 -63 587 -115 815 -115 145 0 436 31 601 64 515 103 961 345 1148 622 73
108 93 171 166 544 9 47 21 103 25 125 5 22 36 175 69 340 33 165 86 424 117
575 31 151 67 329 80 395 13 66 30 153 39 193 14 71 27 134 60 302 9 47 23
114 30 150 7 36 21 103 30 150 9 47 21 105 27 130 5 25 14 68 18 95 5 28 41
205 80 395 39 190 77 377 85 415 8 39 31 147 51 240 70 318 55 509 -55 701
-254 447 -948 796 -1846 928 -262 39 -739 63 -975 50z m770 -543 c41 -5 120
-14 175 -21 702 -80 1270 -329 1412 -618 25 -50 28 -68 27 -147 0 -82 -3 -96
-33 -155 -64 -124 -230 -259 -436 -356 -97 -45 -123 -55 -235 -93 -135 -45
-158 -51 -273 -71 -65 -11 -125 -24 -135 -29 -50 -26 -316 -64 -592 -86 -612
-47 -1249 8 -1760 152 -179 51 -414 154 -535 236 -73 49 -177 148 -215 202
-33 49 -70 153 -70 200 0 51 38 153 77 207 63 87 269 226 458 307 55 24 129
58 165 76 177 88 658 181 1060 205 163 10 805 3 910 -9z m-3142 -1204 c7 -7
43 -168 81 -358 71 -350 109 -537 136 -667 8 -39 22 -107 30 -150 9 -42 22
-110 30 -149 8 -40 22 -107 30 -148 22 -111 44 -221 60 -300 9 -38 27 -128 41
-200 76 -380 74 -361 38 -377 -20 -8 -106 -12 -269 -12 -273 -1 -317 6 -463
76 -135 66 -227 173 -276 323 -35 109 -36 417 -1 605 43 228 47 247 91 400 82
281 208 570 358 823 25 43 46 81 46 83 0 9 44 64 51 64 3 0 11 -6 17 -13z
m774 -536 c159 -75 183 -85 333 -135 195 -65 256 -83 415 -120 401 -93 895
-136 1325 -116 267 13 265 13 265 -6 0 -40 -329 -342 -572 -525 -133 -101
-314 -221 -491 -327 -105 -62 -417 -223 -504 -259 -18 -7 -47 -20 -65 -28 -62
-27 -215 -84 -337 -125 -136 -46 -143 -45 -161 19 -13 48 -79 372 -90 441 -4
30 -13 75 -19 100 -10 46 -28 134 -55 270 -23 114 -45 222 -61 302 -98 475
-111 558 -90 558 2 0 51 -22 107 -49z m3813 0 c-4 -17 -38 -178 -60 -291 -7
-36 -18 -90 -24 -120 -6 -30 -18 -91 -27 -135 -14 -75 -21 -107 -58 -290 -8
-38 -22 -108 -31 -155 -9 -47 -21 -105 -27 -130 -5 -25 -14 -67 -18 -95 -5
-27 -19 -95 -30 -150 -12 -55 -27 -134 -35 -175 -8 -41 -39 -196 -70 -345
-108 -520 -135 -655 -159 -781 -8 -45 -20 -102 -25 -125 -5 -24 -17 -82 -26
-129 -55 -280 -83 -331 -245 -434 -153 -98 -383 -171 -680 -217 -127 -20 -183
-23 -455 -23 -269 1 -328 3 -449 22 -339 54 -581 138 -736 257 -93 72 -133
134 -156 245 -37 171 -148 721 -156 770 -14 85 -8 95 69 120 188 61 389 137
531 201 34 16 64 29 67 29 23 0 335 165 543 287 455 268 895 621 1246 1002 79
86 279 333 328 406 35 51 45 57 175 100 137 46 290 107 402 161 77 38 87 41
99 26 6 -9 10 -23 7 -31z"/>
</g>
</svg>
